<svg xmlns="http://www.w3.org/2000/svg" xmlns:xlink="http://www.w3.org/1999/xlink" fill="none" version="1.1" width="100" height="21" viewBox="0 0 100 21"><g><path d="M5.39584,21Q3.86997,21,2.64264,20.2444Q1.4153,19.4889,0.707652,18.0556Q0,16.6222,0,14.6667Q0,11.2889,1.43742,8.41111Q2.87483,5.53333,5.68333,3.78889Q8.49182,2.04444,12.4281,2.04444Q13.4454,2.04444,14.6064,2.2Q15.7674,2.35556,16.7183,2.66667Q17.3375,2.84444,17.3375,3.55556Q17.3375,4.13333,16.9062,4.64444Q16.475,5.15556,15.9,5.15556Q15.7231,5.15556,15.6347,5.13333Q14.4847,4.86667,13.6665,4.74444Q12.8483,4.62222,11.9416,4.62222Q9.13313,4.62222,7.16497,5.98889Q5.19682,7.35556,4.2238,9.6Q3.25077,11.8444,3.25077,14.4444Q3.25077,16.3333,3.9916,17.3667Q4.73242,18.4,5.92658,18.4Q7.27554,18.4,8.29279,17.2889Q9.31004,16.1778,10.1504,13.6889Q10.9907,11.2,11.8089,6.93333Q11.9416,6.31111,12.3397,6.08889Q12.7377,5.86667,13.4012,5.86667Q14.9713,5.86667,14.9713,6.88889Q14.9713,7.06667,14.9049,7.33333Q14.3299,9.48889,13.8545,12.1Q13.379,14.7111,13.379,16.0667Q13.379,17.2667,13.7329,17.8111Q14.0867,18.3556,14.8165,18.3556Q15.5241,18.3556,16.1654,17.8778Q16.8067,17.4,17.7797,16.2444Q18.0451,15.9333,18.3768,15.9333Q18.6643,15.9333,18.8302,16.2Q18.996,16.4667,18.996,16.9333Q18.996,17.8,18.5759,18.3111Q17.4923,19.6222,16.4529,20.3111Q15.4135,21,13.9098,21Q12.3618,21,11.4109,20.1Q10.46,19.2,10.2167,17.5556Q8.58028,21,5.39584,21ZM37.8372,15.9333Q38.1247,15.9333,38.2906,16.2Q38.4564,16.4667,38.4564,16.9333Q38.4564,17.8,38.0363,18.3111Q36.9748,19.6,35.8912,20.3Q34.8076,21,33.326,21Q31.8885,21,30.8824,20.2222Q29.8762,19.4444,28.9695,17.5556Q28.2397,16.0444,27.8195,15.3222Q27.3994,14.6,26.9903,14.2889Q26.5812,13.9778,25.9841,13.9111Q25.8956,14.3778,25.4755,16.8444Q25.2985,17.9556,25.2543,18.2Q25.0332,19.5556,24.3697,20.2778Q23.7063,21,22.3574,21Q20.8757,21,19.7368,20.1222Q18.598,19.2444,17.9788,17.6778Q17.3596,16.1111,17.3596,14.1111Q17.3596,10.3778,18.6533,7.66667Q19.9469,4.95556,22.28,3.52222Q24.613,2.08889,27.6648,2.08889Q29.7877,2.08889,31.2251,2.73333Q32.6625,3.37778,33.3591,4.51111Q34.0557,5.64444,34.0557,7.06667Q34.0557,8.31111,33.4697,9.5Q32.8837,10.6889,31.7116,11.6Q30.5396,12.5111,28.8589,12.9556Q29.9204,13.2444,30.4954,13.8889Q31.0703,14.5333,31.6453,15.7778Q32.2645,17.1111,32.8726,17.7333Q33.4808,18.3556,34.2769,18.3556Q34.9845,18.3556,35.6258,17.8778Q36.2671,17.4,37.2402,16.2444Q37.5055,15.9333,37.8372,15.9333ZM22.9323,13.8889Q22.1805,13.8889,21.904,13.5333Q21.6276,13.1778,21.6276,12.7333Q21.6276,12.2,21.9704,11.8889Q22.3131,11.5778,22.7554,11.5778L23.3083,11.5778Q23.6621,9.4,23.9717,7.82222Q24.2592,6.37778,25.8293,6.37778Q27.0898,6.37778,27.0898,7.51111Q27.0898,7.75556,27.0677,7.88889L26.4042,11.5778Q27.5984,11.5111,28.5825,11Q29.5666,10.4889,30.1526,9.57778Q30.7386,8.66667,30.7386,7.51111Q30.7386,6.11111,29.7877,5.31111Q28.8368,4.51111,27.0013,4.51111Q24.8341,4.51111,23.2088,5.58889Q21.5834,6.66667,20.6767,8.78889Q19.77,10.9111,19.77,13.9556Q19.77,15.3778,20.0575,16.4Q20.345,17.4222,20.7651,17.9333Q21.1853,18.4444,21.5613,18.4444Q21.8487,18.4444,22.0367,18.1556Q22.2247,17.8667,22.3352,17.2222L22.9323,13.8889ZM54.2017,2.44444Q54.8872,2.57778,55.23,2.91111Q55.5728,3.24444,55.5728,3.68889Q55.5728,4.42222,55.1637,4.75556Q54.7545,5.08889,53.87,5.02222Q51.8797,4.86667,50.7629,4.81111Q49.6462,4.75556,47.8328,4.73333Q47.0146,8.82222,46.3291,12.9556Q46.0858,14.4667,45.8204,16.4556Q45.5551,18.4444,45.4666,19.6667Q45.4224,20.3111,44.9359,20.6556Q44.4494,21,43.7638,21Q43.0341,21,42.636,20.6444Q42.2379,20.2889,42.2379,19.7111Q42.2379,19.1778,42.4038,17.9444Q42.5697,16.7111,42.7908,15.3556Q43.0341,14,43.1667,13Q43.41,11.3111,43.7196,9.64444Q44.0292,7.97778,44.3388,6.48889Q44.4051,6.15556,44.4936,5.72222Q44.582,5.28889,44.6926,4.75556Q42.5254,4.82222,41.287,5.11111Q40.0487,5.4,39.529,5.92222Q39.0093,6.44444,39.0093,7.26667Q39.0093,8.02222,39.4516,8.71111Q39.54,8.86667,39.54,9.04444Q39.54,9.46667,39.0425,9.83333Q38.5449,10.2,38.0142,10.2Q37.6382,10.2,37.395,9.97778Q36.9527,9.6,36.6652,8.9Q36.3777,8.2,36.3777,7.31111Q36.3777,5.42222,37.605,4.27778Q38.8324,3.13333,41.3423,2.6Q43.8523,2.06667,47.7886,2.06667Q50.2211,2.06667,51.6696,2.15556Q53.1181,2.24444,54.2017,2.44444ZM52.6979,21Q51.3269,21,50.5086,20Q49.6904,19,49.6904,17.3778Q49.6904,15.6,50.5086,14.0111Q51.3269,12.4222,52.6869,11.4556Q54.0469,10.4889,55.5728,10.4889Q56.0593,10.4889,56.2251,10.6778Q56.391,10.8667,56.5016,11.3556Q56.9659,11.2667,57.4746,11.2667Q58.5582,11.2667,58.5582,12.0444Q58.5582,12.5111,58.2265,14.2667Q57.7178,16.8222,57.7178,17.8222Q57.7178,18.1556,57.8837,18.3556Q58.0495,18.5556,58.3149,18.5556Q58.7351,18.5556,59.3322,18.0111Q59.9292,17.4667,60.9465,16.2444Q61.2119,15.9333,61.5436,15.9333Q61.8311,15.9333,61.9969,16.2Q62.1628,16.4667,62.1628,16.9333Q62.1628,17.8222,61.7426,18.3111Q60.8359,19.4444,59.8187,20.2222Q58.8014,21,57.8505,21Q57.1207,21,56.5126,20.5Q55.9045,20,55.5949,19.1333Q54.4449,21,52.6979,21ZM53.494,18.7556Q53.9805,18.7556,54.4228,18.1778Q54.8651,17.6,55.0641,16.6444L55.8824,12.5556Q54.9536,12.5778,54.1685,13.2556Q53.3835,13.9333,52.9191,15.0444Q52.4547,16.1556,52.4547,17.4Q52.4547,18.0889,52.7311,18.4222Q53.0075,18.7556,53.494,18.7556ZM68.7528,15.9333Q69.0403,15.9333,69.2061,16.2Q69.372,16.4667,69.372,16.9333Q69.372,17.8222,68.9518,18.3111Q68.0009,19.4889,66.8841,20.2444Q65.7674,21,64.3521,21Q62.406,21,61.4662,19.2222Q60.5263,17.4444,60.5263,14.6222Q60.5263,11.9111,61.2229,8.44444Q61.9195,4.97778,63.2795,2.48889Q64.6395,0,66.5192,0Q67.5807,0,68.1889,0.988889Q68.797,1.97778,68.797,3.82222Q68.797,6.46667,67.3375,9.95556Q65.8779,13.4444,63.379,16.8667Q63.5338,17.7778,63.8877,18.1667Q64.2415,18.5556,64.8165,18.5556Q65.7231,18.5556,66.4087,18.0333Q67.0942,17.5111,68.1557,16.2444Q68.4211,15.9333,68.7528,15.9333ZM66.0327,2.2Q65.5241,2.2,64.8828,4.04445Q64.2415,5.88889,63.755,8.62222Q63.2685,11.3556,63.2242,13.8667Q64.7943,11.2667,65.7231,8.65555Q66.6519,6.04444,66.6519,3.88889Q66.6519,2.2,66.0327,2.2ZM80.3627,15.9333Q80.6502,15.9333,80.816,16.2Q80.9819,16.4667,80.9819,16.9333Q80.9819,17.8222,80.5617,18.3111Q79.5666,19.5333,78.5493,20.2667Q77.5321,21,76.1389,21Q74.4361,21,73.3967,20.0222Q72.3574,19.0444,72.3574,17.4222Q72.3574,16.5556,73.2419,16.1778Q74.215,15.7556,74.6351,15.2778Q75.0553,14.8,75.0553,14.1111Q75.0553,13.7111,74.8894,13.5111Q74.7236,13.3111,74.4803,13.3111Q73.8832,13.3111,73.1645,14.1778Q72.4458,15.0444,71.8266,16.4111Q71.2074,17.7778,70.8536,19.2222Q70.6104,20.2667,70.2897,20.6333Q69.969,21,69.2835,21Q68.598,21,68.2773,20.5Q67.9567,20,67.8461,18.9556Q67.7355,17.9111,67.7355,15.8889Q67.7355,12.4667,68.4321,8.75556Q69.1287,5.04444,70.4887,2.52222Q71.8487,0,73.7506,0Q74.7678,0,75.3981,0.877778Q76.0283,1.75556,76.0283,3.15556Q76.0283,5.4,74.7236,7.81111Q73.4188,10.2222,70.4777,13.4444Q70.4113,14.6,70.4113,15.8222Q71.4728,13.0444,72.8439,11.7889Q74.215,10.5333,75.4091,10.5333Q76.5148,10.5333,77.1893,11.2889Q77.8638,12.0444,77.8638,13.1556Q77.8638,14.3778,77.2446,15.4Q76.6254,16.4222,75.1216,17.2222Q75.2101,17.8222,75.6634,18.1889Q76.1168,18.5556,76.7581,18.5556Q77.4436,18.5556,78.0849,18.0222Q78.7262,17.4889,79.7656,16.2444Q80.031,15.9333,80.3627,15.9333ZM73.2862,2.2Q72.8881,2.2,72.4016,3.34444Q71.9151,4.48889,71.4617,6.43333Q71.0084,8.37778,70.7209,10.6667Q72.092,9.04444,72.9876,7.13333Q73.8832,5.22222,73.8832,3.66667Q73.8832,2.95556,73.7284,2.57778Q73.5736,2.2,73.2862,2.2ZM89.0535,15.9333Q89.341,15.9333,89.5069,16.2Q89.6727,16.4667,89.6727,16.9333Q89.6727,17.8222,89.2525,18.3111Q88.4343,19.3111,86.9416,20.1556Q85.4489,21,83.7461,21Q81.4242,21,80.1415,19.7333Q78.8589,18.4667,78.8589,16.2667Q78.8589,14.7333,79.5002,13.4111Q80.1415,12.0889,81.2804,11.3111Q82.4193,10.5333,83.8567,10.5333Q85.1393,10.5333,85.9133,11.3Q86.6873,12.0667,86.6873,13.3778Q86.6873,14.9111,85.5927,16.0111Q84.498,17.1111,81.8886,17.7556Q82.4414,18.7778,83.9894,18.7778Q84.9845,18.7778,86.2561,18.0778Q87.5277,17.3778,88.4564,16.2444Q88.7218,15.9333,89.0535,15.9333ZM83.4808,12.7111Q82.6625,12.7111,82.0986,13.6667Q81.5347,14.6222,81.5347,15.9778L81.5347,16.0222Q82.8395,15.7111,83.5913,15.0889Q84.3432,14.4667,84.3432,13.6444Q84.3432,13.2222,84.111,12.9667Q83.8788,12.7111,83.4808,12.7111ZM89.4516,21Q88.6112,21,88.2685,20.1111Q87.9257,19.2222,87.9257,17.2667Q87.9257,14.3778,88.7439,11.7778Q88.943,11.1333,89.3963,10.8333Q89.8496,10.5333,90.6678,10.5333Q91.1101,10.5333,91.287,10.6444Q91.464,10.7556,91.464,11.0667Q91.464,11.4222,91.1322,12.6667Q90.9111,13.5556,90.7784,14.2222Q90.6457,14.8889,90.5573,15.8667Q91.287,13.9556,92.1937,12.7556Q93.1004,11.5556,93.9739,11.0444Q94.8474,10.5333,95.5772,10.5333Q97.0146,10.5333,97.0146,11.9778Q97.0146,12.2667,96.8156,13.3778Q96.6387,14.2667,96.6387,14.4889Q96.6387,15.2667,97.1915,15.2667Q97.8107,15.2667,98.7837,14.2889Q99.0712,14,99.3808,14Q99.6683,14,99.8342,14.2556Q100,14.5111,100,14.9333Q100,15.7556,99.5577,16.2222Q98.9385,16.8667,98.1092,17.3222Q97.28,17.7778,96.3512,17.7778Q95.1791,17.7778,94.571,17.1778Q93.9629,16.5778,93.9629,15.5556Q93.9629,15.2222,94.0292,14.8889Q94.0734,14.4444,94.0734,14.2889Q94.0734,13.9333,93.8302,13.9333Q93.4985,13.9333,92.9567,14.6778Q92.4149,15.4222,91.8841,16.6444Q91.3534,17.8667,91.0217,19.2222Q90.7784,20.2667,90.4578,20.6333Q90.1371,21,89.4516,21Z" fill="#4B6FBF" fill-opacity="1"/></g></svg>